<?xml version="1.0" encoding="iso-8859-1"?>
<!-- Generator: Adobe Illustrator 19.0.0, SVG Export Plug-In . SVG Version: 6.00 Build 0)  -->
<svg version="1.1" id="Capa_1" xmlns="http://www.w3.org/2000/svg" xmlns:xlink="http://www.w3.org/1999/xlink" x="0px" y="0px"
	 viewBox="0 0 384 384" style="enable-background:new 0 0 384 384;" xml:space="preserve">
<rect x="72" y="56" style="fill:#FF7043;" width="88" height="272"/>
<rect x="224" y="56" style="fill:#4DD0E1;" width="88" height="272"/>
<g>
	<path style="fill:#012E52;" d="M72,104c-8.832,0-16,7.168-16,16v208c0,8.832,7.168,16,16,16h88c8.832,0,16-7.168,16-16V56
		c0-8.832-7.168-16-16-16H16C7.168,40,0,47.168,0,56s7.168,16,16,16h128v240H88V120C88,111.168,80.832,104,72,104z"/>
	<path style="fill:#012E52;" d="M368,312H240V72h56v192c0,8.832,7.168,16,16,16s16-7.168,16-16V56c0-8.832-7.168-16-16-16h-88
		c-8.832,0-16,7.168-16,16v272c0,8.832,7.168,16,16,16h144c8.832,0,16-7.168,16-16S376.832,312,368,312z"/>
</g>
<g>
</g>
<g>
</g>
<g>
</g>
<g>
</g>
<g>
</g>
<g>
</g>
<g>
</g>
<g>
</g>
<g>
</g>
<g>
</g>
<g>
</g>
<g>
</g>
<g>
</g>
<g>
</g>
<g>
</g>
</svg>
