<?xml version="1.0" encoding="iso-8859-1"?>
<!-- Generator: Adobe Illustrator 19.0.0, SVG Export Plug-In . SVG Version: 6.00 Build 0)  -->
<svg version="1.1" id="Capa_1" xmlns="http://www.w3.org/2000/svg" xmlns:xlink="http://www.w3.org/1999/xlink" x="0px" y="0px"
	 viewBox="0 0 384 384" style="enable-background:new 0 0 384 384;" xml:space="preserve">
<circle style="fill:#4DD0E1;" cx="192" cy="168" r="152"/>
<g>
	<path style="fill:#012E52;" d="M104.176,278.696c-6.552-5.936-16.68-5.424-22.6,1.12c-5.928,6.552-5.432,16.664,1.12,22.6
		c4.056,3.672,8.208,6.928,12.352,9.696c2.728,1.816,5.816,2.688,8.856,2.688c5.168,0,10.24-2.504,13.328-7.12
		c4.896-7.352,2.912-17.288-4.44-22.192C109.968,283.6,107.072,281.32,104.176,278.696z"/>
	<path style="fill:#012E52;" d="M360,171.52C360,76.944,284.352,0,191.36,0C106.192,0,34.288,64.744,24.112,150.6
		c-1.04,8.776,5.232,16.728,14.008,17.768c8.712,1.032,16.728-5.224,17.776-14C64.168,84.608,122.4,32,191.36,32
		C266.704,32,328,94.592,328,171.52c0,64.944-43.752,119.512-102.696,134.984l19.32-27.552c5.072-7.24,3.32-17.216-3.912-22.288
		c-7.24-5.064-17.208-3.32-22.288,3.912l-40.168,57.28c-0.032,0.04-0.048,0.088-0.072,0.128c-0.36,0.52-0.632,1.088-0.928,1.648
		c-0.192,0.368-0.44,0.728-0.6,1.104c-0.176,0.416-0.28,0.872-0.424,1.304c-0.184,0.56-0.4,1.112-0.52,1.68
		c-0.072,0.336-0.08,0.696-0.128,1.048c-0.096,0.696-0.2,1.392-0.208,2.088c0,0.064-0.016,0.128-0.016,0.192
		c0,0.368,0.08,0.712,0.104,1.072c0.04,0.616,0.072,1.232,0.184,1.84c0.096,0.504,0.248,0.968,0.384,1.456
		c0.144,0.504,0.272,1.016,0.472,1.504c0.192,0.472,0.432,0.92,0.664,1.368c0.24,0.472,0.464,0.936,0.752,1.384
		c0.272,0.424,0.592,0.808,0.904,1.208c0.328,0.416,0.632,0.832,1.008,1.216c0.384,0.4,0.816,0.744,1.24,1.104
		c0.296,0.256,0.552,0.544,0.872,0.776l56.24,40.96c2.84,2.064,6.136,3.064,9.4,3.064c4.944,0,9.824-2.28,12.944-6.584
		c5.2-7.144,3.632-17.152-3.504-22.352l-24.064-17.528C305.856,318.624,360,251.472,360,171.52z"/>
	<path style="fill:#012E52;" d="M68.984,235.056c-0.064-0.448-0.088-0.896-0.184-1.336c-0.112-0.488-0.288-0.96-0.448-1.44
		c-0.176-0.544-0.336-1.096-0.568-1.608c-0.04-0.096-0.056-0.2-0.104-0.296c-1.536-3.248-3.272-7.024-4.504-10.712
		c-2.784-8.384-11.816-12.912-20.232-10.136c-8.384,2.792-12.912,11.848-10.128,20.232c1.68,5.056,3.728,9.568,5.568,13.504
		c0.08,0.2,0.176,0.392,0.264,0.584c0.024,0.048,0.048,0.112,0.072,0.16s0.064,0.08,0.08,0.128c0.624,1.304,1.432,2.496,2.376,3.576
		c0.072,0.08,0.136,0.168,0.208,0.248c1.92,2.112,4.4,3.672,7.208,4.52c0.12,0.04,0.24,0.08,0.36,0.112
		c1.36,0.376,2.76,0.64,4.24,0.64c2.416,0,4.68-0.576,6.736-1.544c0.024-0.016,0.056-0.016,0.08-0.032
		c0.112-0.056,0.2-0.128,0.312-0.184c0.792-0.4,1.552-0.84,2.256-1.36c0.272-0.2,0.512-0.424,0.768-0.632
		c0.52-0.432,1.032-0.872,1.496-1.368c0.296-0.32,0.552-0.664,0.824-1c0.36-0.456,0.72-0.912,1.032-1.408
		c0.248-0.4,0.456-0.816,0.672-1.232c0.256-0.496,0.504-0.976,0.712-1.504c0.184-0.48,0.312-0.968,0.456-1.464
		c0.136-0.488,0.288-0.976,0.376-1.48c0.112-0.6,0.144-1.208,0.184-1.816c0.024-0.344,0.104-0.672,0.104-1.016
		c0-0.096-0.024-0.184-0.032-0.28C69.168,236.296,69.072,235.68,68.984,235.056z"/>
</g>
<g>
</g>
<g>
</g>
<g>
</g>
<g>
</g>
<g>
</g>
<g>
</g>
<g>
</g>
<g>
</g>
<g>
</g>
<g>
</g>
<g>
</g>
<g>
</g>
<g>
</g>
<g>
</g>
<g>
</g>
</svg>
